# xmcd
#
# Track frame offsets:
#	150
#	26290
#	39966
#	57161
#	74191
#	97169
#	109471
#	124978
#	149284
#	168417
#	181318
#
# Disc length: 2545 seconds
#
# Revision: 0
# Processed by: cddbd v1.5.2PL0 Copyright (c) Steve Scherf et al.
# Submitted via: audiograbber 1.83.01
#
DISCID=a209ef0b
DTITLE=Georges Moustaki - Bobino 70
DYEAR=1970
DGENRE=Chanson francaise
TTITLE0=Le temps de vivre
TTITLE1=Votre fille a vingt ans
TTITLE2=La pierre
TTITLE3=Dans mon hamac
TTITLE4=Nos corps
TTITLE5=Requiem pour n'importe qui
TTITLE6=Ma liberte
TTITLE7=Eden blues
TTITLE8=Donne du rhum a ton homme
TTITLE9=Dire qu'il faudra mourir un jour
TTITLE10=ye ye ye
EXTD=
EXTT0=
EXTT1=
EXTT2=
EXTT3=
EXTT4=
EXTT5=
EXTT6=
EXTT7=
EXTT8=
EXTT9=
EXTT10=
PLAYORDER=
